scaled_model_ID_test_static_coords.mot
version=1
datacolumns 20
datarows 36
range 1.430000 1.780000
inDegrees=yes
endheader
time	pelvis_tilt	pelvis_list	pelvis_rotation	hip_flexion_r	hip_adduction_r	hip_rotation_r	knee_angle_r	ankle_angle_r	hip_flexion_l	hip_adduction_l	hip_rotation_l	knee_angle_l	ankle_angle_l	pelvis_tx	pelvis_ty	pelvis_tz	lumbar_bending	lumbar_rotation	lumbar_extension
1.430000	9.624879	0.359577	-179.455070	13.119493	-5.354256	-4.424104	-8.152474	2.151504	10.787434	-6.220064	-5.364848	-8.394663	2.660875	0.693902	0.934737	-0.114647	-1.195224	-0.510077	7.355731
1.440000	9.624183	0.345000	-179.454072	13.121515	-5.376245	-4.409973	-8.150957	2.132524	10.780408	-6.189533	-5.357440	-8.359494	2.607204	0.693967	0.934770	-0.114638	-1.207081	-0.519822	7.355105
1.450000	9.621957	0.332339	-179.451191	13.120157	-5.397507	-4.394585	-8.145941	2.107200	10.772183	-6.160877	-5.332405	-8.324002	2.553817	0.694021	0.934794	-0.114623	-1.222101	-0.529297	7.354716
1.460000	9.620592	0.325341	-179.447145	13.118159	-5.412891	-4.383738	-8.137926	2.080410	10.766579	-6.139394	-5.295661	-8.292443	2.508283	0.694056	0.934802	-0.114600	-1.239440	-0.535729	7.354607
1.470000	9.621457	0.326192	-179.442944	13.117182	-5.418990	-4.378985	-8.127931	2.057800	10.764510	-6.127996	-5.256081	-8.265653	2.475304	0.694068	0.934793	-0.114569	-1.258080	-0.536678	7.354673
1.480000	9.624212	0.335324	-179.439439	13.116385	-5.414812	-4.377134	-8.116453	2.043460	10.763220	-6.127257	-5.222891	-8.241328	2.456210	0.694053	0.934773	-0.114534	-1.276687	-0.530291	7.355203
1.490000	9.626920	0.351591	-179.437389	13.112844	-5.401701	-4.372422	-8.103586	2.038399	10.757447	-6.136071	-5.203261	-8.216022	2.450125	0.694012	0.934748	-0.114497	-1.293583	-0.515662	7.356941
1.500000	9.626773	0.372543	-179.438040	13.103650	-5.382738	-4.359849	-8.090532	2.040967	10.741858	-6.152428	-5.200602	-8.188006	2.456005	0.693946	0.934722	-0.114460	-1.306794	-0.493306	7.360450
1.510000	9.621344	0.395034	-179.443085	13.088115	-5.361605	-4.337857	-8.080609	2.048432	10.713765	-6.174048	-5.214035	-8.159014	2.473142	0.693862	0.934695	-0.114419	-1.314719	-0.465232	7.365491
1.520000	9.609974	0.416204	-179.453555	13.068524	-5.341166	-4.309417	-8.078215	2.058135	10.674955	-6.198840	-5.238928	-8.133549	2.499414	0.693769	0.934662	-0.114374	-1.317360	-0.434391	7.371068
1.530000	9.594436	0.434331	-179.468606	13.049095	-5.322605	-4.281467	-8.086250	2.067646	10.631555	-6.225033	-5.267915	-8.116426	2.529536	0.693677	0.934624	-0.114323	-1.316944	-0.403899	7.375961
1.540000	9.578414	0.449037	-179.485308	13.033930	-5.305720	-4.262913	-8.103794	2.074429	10.591883	-6.250857	-5.292120	-8.110261	2.555900	0.693593	0.934583	-0.114269	-1.317119	-0.376439	7.379257
1.550000	9.566087	0.460707	-179.499610	13.025227	-5.290235	-4.261722	-8.125733	2.075976	10.563349	-6.273903	-5.302931	-8.114290	2.572043	0.693518	0.934547	-0.114216	-1.321020	-0.353996	7.380587
1.560000	9.560606	0.469479	-179.507912	13.022618	-5.277157	-4.282260	-8.144571	2.070867	10.550042	-6.290678	-5.294768	-8.124989	2.576030	0.693452	0.934523	-0.114167	-1.329356	-0.337876	7.380192
1.570000	9.563155	0.474553	-179.508385	13.023704	-5.269151	-4.323955	-8.153268	2.060096	10.552081	-6.297045	-5.268192	-8.137907	2.570884	0.693395	0.934516	-0.114125	-1.339781	-0.328895	7.378923
1.580000	9.572834	0.474099	-179.501499	13.025491	-5.269906	-4.381554	-8.148032	2.047535	10.566590	-6.289523	-5.231261	-8.149744	2.562128	0.693346	0.934528	-0.114091	-1.348009	-0.327786	7.378060
1.590000	9.587280	0.466068	-179.489565	13.026030	-5.282560	-4.446363	-8.129898	2.038791	10.589576	-6.267171	-5.197401	-8.159749	2.554465	0.693307	0.934553	-0.114065	-1.350155	-0.335288	7.378988
1.600000	9.603867	0.450018	-179.475661	13.025434	-5.307161	-4.507669	-8.103990	2.038511	10.617839	-6.233570	-5.180535	-8.169629	2.549199	0.693281	0.934585	-0.114053	-1.344939	-0.351126	7.383039
1.610000	9.620847	0.428610	-179.462803	13.025895	-5.339095	-4.554532	-8.077131	2.047617	10.649616	-6.197092	-5.190074	-8.181740	2.543768	0.693268	0.934615	-0.114058	-1.334205	-0.372682	7.391461
1.620000	9.637544	0.407086	-179.453799	13.030639	-5.370527	-4.578573	-8.055501	2.062893	10.683320	-6.168184	-5.227931	-8.196525	2.533856	0.693265	0.934636	-0.114080	-1.321544	-0.395055	7.405018
1.630000	9.653506	0.391125	-179.451135	13.041905	-5.393778	-4.577316	-8.042945	2.079251	10.715521	-6.155146	-5.288241	-8.210796	2.516466	0.693268	0.934646	-0.114112	-1.310649	-0.412615	7.423102
1.640000	9.667446	0.384887	-179.456240	13.058817	-5.403954	-4.556012	-8.039898	2.092143	10.740085	-6.161175	-5.359290	-8.217967	2.491701	0.693270	0.934643	-0.114147	-1.304603	-0.420765	7.443026
1.650000	9.676944	0.390110	-179.468679	13.076634	-5.399659	-4.526137	-8.043338	2.098417	10.749507	-6.183899	-5.426526	-8.210589	2.462524	0.693266	0.934631	-0.114172	-1.305492	-0.417099	7.460321
1.660000	9.679251	0.405983	-179.486100	13.088405	-5.382561	-4.500773	-8.048285	2.096563	10.738105	-6.216893	-5.475804	-8.184458	2.433505	0.693248	0.934618	-0.114179	-1.313582	-0.402070	7.470183
1.670000	9.672808	0.429391	-179.504930	13.088366	-5.356739	-4.489093	-8.050401	2.087378	10.705388	-6.252070	-5.496698	-8.142039	2.409715	0.693210	0.934610	-0.114165	-1.326646	-0.379146	7.469501
1.680000	9.658563	0.455584	-179.521280	13.074934	-5.327813	-4.492773	-8.048000	2.074335	10.657564	-6.282137	-5.485713	-8.092754	2.395611	0.693152	0.934612	-0.114132	-1.340485	-0.354146	7.458419
1.690000	9.640122	0.479323	-179.531643	13.051106	-5.301543	-4.506070	-8.041815	2.062507	10.606045	-6.302491	-5.448113	-8.049725	2.393409	0.693078	0.934624	-0.114089	-1.350755	-0.333742	7.440584
1.700000	9.622401	0.496023	-179.533401	13.022302	-5.282617	-4.519209	-8.033358	2.056551	10.563478	-6.311638	-5.396528	-8.024922	2.402217	0.692993	0.934646	-0.114049	-1.355095	-0.323858	7.421742
1.710000	9.609512	0.502676	-179.525090	12.993443	-5.274032	-4.522862	-8.023668	2.059022	10.539110	-6.310378	-5.346022	-8.024923	2.419407	0.692902	0.934670	-0.114025	-1.354571	-0.328371	7.407402
1.720000	9.603291	0.498903	-179.506224	12.966864	-5.276025	-4.511255	-8.012457	2.069242	10.535758	-6.301348	-5.307920	-8.048528	2.442942	0.692809	0.934689	-0.114027	-1.354110	-0.347689	7.400903
1.730000	9.603126	0.487176	-179.477313	12.942085	-5.285714	-4.483337	-7.998062	2.083703	10.549572	-6.288434	-5.285534	-8.087193	2.472639	0.692718	0.934695	-0.114059	-1.361086	-0.378229	7.402638
1.740000	9.606707	0.471087	-179.440666	12.917619	-5.299242	-4.442799	-7.979122	2.098593	10.572358	-6.274764	-5.273743	-8.128685	2.509647	0.692629	0.934686	-0.114121	-1.381729	-0.414177	7.410320
1.750000	9.611337	0.452945	-179.400752	12.893399	-5.314594	-4.397121	-7.956786	2.112561	10.595486	-6.260827	-5.262482	-8.162313	2.554778	0.692546	0.934667	-0.114203	-1.417560	-0.450478	7.420228
1.760000	9.615309	0.432978	-179.362838	12.871933	-5.332312	-4.355217	-7.935476	2.127610	10.613520	-6.244755	-5.242137	-8.182683	2.607123	0.692473	0.934647	-0.114292	-1.464545	-0.484600	7.429018
1.770000	9.618613	0.411151	-179.330890	12.857441	-5.353033	-4.324177	-7.921253	2.146988	10.625677	-6.225087	-5.207856	-8.190192	2.663724	0.692416	0.934636	-0.114376	-1.515109	-0.515525	7.435165
1.780000	9.622539	0.389543	-179.306893	12.853888	-5.374583	-4.306740	-7.919003	2.171807	10.634389	-6.203372	-5.160947	-8.188713	2.719785	0.692380	0.934642	-0.114442	-1.560849	-0.541581	7.439168
